HIERARCHY
ROOT Hips
{
     OFFSET 1.88212 96.90440 -13.34250
     CHANNELS 6 Xposition Yposition Zposition Zrotation Xrotation Yrotation
     JOINT Spine
     {
          OFFSET 0.00000 11.89050 0.00000
          CHANNELS 3 Zrotation Xrotation Yrotation
          JOINT Spine1
          {
               OFFSET -0.00000 25.65740 0.12766
               CHANNELS 3 Zrotation Xrotation Yrotation
               JOINT HEad
               {
                    OFFSET 0.00000 8.73416 0.01134
                    CHANNELS 3 Zrotation Xrotation Yrotation
                    End Site
                    {
                         OFFSET -0.29000 12.77420 2.51395
                    }
               }
               JOINT LeftShoulder1
               {
                    OFFSET 8.99000 -0.36225 -0.22000
                    CHANNELS 3 Zrotation Xrotation Yrotation
                    JOINT LeftArm
                    {
                         OFFSET 10.28270 -0.00338 0.32212
                         CHANNELS 3 Zrotation Xrotation Yrotation
                         JOINT LeftForeArm
                         {
                              OFFSET 32.76690 0.09914 -1.42434
                              CHANNELS 3 Zrotation Xrotation Yrotation
                              JOINT LeftHand
                              {
                                   OFFSET 27.56430 0.08536 1.02216
                                   CHANNELS 3 Zrotation Xrotation Yrotation
                                   End Site
                                   {
                                        OFFSET 16.74430 -0.60000 1.50291
                                   }
                              }
                         }
                    }
               }
               JOINT RightShoulder
               {
                    OFFSET -8.99000 -0.36225 -0.22000
                    CHANNELS 3 Zrotation Xrotation Yrotation
                    JOINT RightArm
                    {
                         OFFSET -10.28270 -0.00338 0.32212
                         CHANNELS 3 Zrotation Xrotation Yrotation
                         JOINT RightForeArm
                         {
                              OFFSET -32.89710 0.09914 -1.42434
                              CHANNELS 3 Zrotation Xrotation Yrotation
                              JOINT RightHand
                              {
                                   OFFSET -27.49210 0.08536 1.02216
                                   CHANNELS 3 Zrotation Xrotation Yrotation
                                   End Site
                                   {
                                        OFFSET -16.63120 -0.60000 1.50291
                                   }
                              }
                         }
                    }
               }
          }
     }
     JOINT LeftUpLeg
     {
          OFFSET 8.94580 -8.66707 0.10165
          CHANNELS 3 Zrotation Xrotation Yrotation
          JOINT LeftLeg
          {
               OFFSET 0.00000 -44.42270 1.37270
               CHANNELS 3 Zrotation Xrotation Yrotation
               JOINT LeftFoot
               {
                    OFFSET -0.25355 -42.09240 -1.46059
                    CHANNELS 3 Zrotation Xrotation Yrotation
                    JOINT LeftToes
                    {
                         OFFSET -0.04000 -4.41509 8.49910
                         CHANNELS 3 Zrotation Xrotation Yrotation
                         End Site
                         {
                              OFFSET 0.08000 -0.04745 9.77979
                         }
                    }
               }
          }
     }
     JOINT RightUpLeg
     {
          OFFSET -8.94580 -8.66707 0.10165
          CHANNELS 3 Zrotation Xrotation Yrotation
          JOINT RightLeg
          {
               OFFSET 0.00000 -44.42270 1.37270
               CHANNELS 3 Zrotation Xrotation Yrotation
               JOINT RightFoot
               {
                    OFFSET 0.25355 -42.09240 -1.46059
                    CHANNELS 3 Zrotation Xrotation Yrotation
                    JOINT RightToes
                    {
                         OFFSET 0.04000 -4.41509 8.49910
                         CHANNELS 3 Zrotation Xrotation Yrotation
                         End Site
                         {
                              OFFSET -0.08000 -0.13745 9.77979
                         }
                    }
               }
          }
     }
}
MOTION
Frames: 7
Frame Time: 0.01667
0.99997 68.82523 -48.77116 4.73191 2.12537 127.05053 -5.53343 23.01326 1.87818 0.01223 -0.00607 0.01695 12.56791 -6.49967 60.27385 -0.14489 3.14083 6.92979 20.24961 -14.97626 -33.89510 12.90065 -8.45835 5.74342 14.27164 17.92518 -22.62338 22.85069 6.90690 11.48373 17.01844 -31.53913 22.83677 10.18904 30.11874 113.05560 3.54847 10.42502 -18.33904 40.53891 -31.26259 -4.63208 -27.64801 40.92702 -8.44551 -27.81524 -0.00398 0.00848 23.63986 -29.02519 1.73768 -39.62540 -3.75335 4.42018 29.85313 56.38813 -14.02875 21.06439 -0.07404 -0.10303 13.57916 -2.58601 9.32631 
0.27261 68.70161 -50.78922 5.06310 2.19395 127.09732 -7.11428 25.47713 0.45176 0.01336 -0.01053 0.02115 14.41991 -7.59896 61.83997 -0.03357 1.86997 8.69285 22.56327 -12.56314 -33.71992 12.90870 -9.75966 9.40636 -5.66321 11.25743 1.50799 24.67373 6.72606 13.20113 14.97960 -31.07998 20.91184 9.43604 29.24281 114.76479 1.51695 9.44608 -4.27496 39.85682 -33.81184 -1.27842 -27.12928 47.64587 -10.96768 -27.26371 -0.00570 0.00837 24.29921 -32.47149 1.38291 -36.63585 -10.23411 1.73589 36.14246 63.64482 -17.09197 27.44928 -0.37572 0.19736 -2.75989 -8.82282 1.18288 
-0.50690 68.61755 -52.51924 5.32948 2.36316 127.20518 -8.55527 27.30023 -0.43437 0.01327 -0.00350 0.02204 15.85451 -8.05945 62.67028 0.08180 1.27397 10.06054 23.62084 -11.41147 -33.20228 13.48208 -10.95655 10.74479 7.00018 17.08772 -9.58229 26.16985 7.08781 14.53112 13.57630 -30.86373 19.39912 8.58309 28.66870 115.85803 1.38399 9.79550 -11.81548 38.80815 -36.60249 2.72935 -24.41109 54.91883 -14.94862 -26.86310 -0.00552 0.00669 24.83816 -34.35460 1.52420 -33.77613 -16.02143 -1.07083 35.95294 71.70822 -15.04591 26.68733 -0.15655 0.00705 15.07987 -8.98094 16.05768 
-1.29767 68.55357 -53.95361 5.48686 2.54677 127.32767 -9.82797 28.53964 -0.76998 0.01094 0.00226 0.02100 16.82981 -8.08702 62.78517 0.32575 1.18341 10.96601 20.21150 -12.50529 -30.61178 14.65426 -14.66751 4.66290 -7.26940 -0.65113 -4.13275 27.22737 7.70952 15.41071 12.72184 -30.79089 18.15347 7.73126 28.25753 116.92292 -0.23101 9.18142 -2.81669 37.32018 -39.24165 7.14177 -17.64842 61.68428 -22.08407 -26.74529 -0.00344 0.00252 24.91205 -36.70429 0.85720 -30.99677 -20.60387 -4.03430 23.18500 79.01452 -0.65198 33.30194 -0.36175 0.23252 7.82052 -16.07593 10.61056 
-2.04313 68.53030 -55.23584 5.50663 2.72841 127.50861 -10.89753 29.28325 -0.66062 0.00781 0.00700 0.02007 17.34718 -7.84276 62.24081 0.64328 1.42658 11.45710 14.47490 -16.12140 -27.32377 13.86801 -18.44530 -7.06681 13.24171 -6.46490 -2.41131 27.80809 8.36777 15.96623 12.32676 -30.79968 17.13770 6.99042 27.90590 117.64542 -0.47076 9.36259 -6.96731 36.07864 -41.85761 11.29637 -7.75137 67.19891 -31.88722 -26.79204 -0.00178 0.00072 24.67227 -38.26788 0.03883 -27.57104 -24.45301 -6.81790 -2.61239 81.90197 24.07704 33.25881 -0.15636 0.02705 8.32501 -16.03502 10.17545 
-2.72118 68.63078 -56.48889 5.37291 2.87617 127.71746 -12.07845 30.11869 1.22761 -0.01896 0.05389 0.11131 17.60483 -8.39172 60.04279 1.25846 1.24160 10.32876 7.71204 -22.03631 -24.08629 9.09983 -20.11020 -22.91549 -6.42547 12.11864 -8.97546 28.34921 7.78717 15.19902 12.33768 -30.83778 16.42271 6.45668 27.59219 118.36824 -1.65538 8.99166 -1.24025 34.02824 -43.43503 14.82566 7.46204 69.71203 -46.19342 -27.34200 0.00295 -0.00473 24.16339 -39.53951 -1.16359 -25.01617 -27.01546 -9.49052 -36.87041 80.35712 56.65400 36.75314 -0.17591 0.02262 5.66075 -17.57595 8.76498 
-3.32119 68.94954 -57.77008 5.07871 2.99006 127.93811 -13.29105 30.81396 4.60731 -0.01893 0.04219 0.10326 17.50914 -9.33071 56.52803 2.09620 0.88020 8.00264 0.76169 -29.85943 -21.30129 0.83366 -17.68341 -40.80910 8.87268 -3.73323 9.19612 28.67497 6.39364 13.37966 12.63730 -30.91846 15.98018 6.19459 27.30332 118.90356 -1.83954 9.22723 -3.58901 31.29637 -44.09221 17.47360 22.51333 69.16289 -59.79040 -28.26586 0.00573 -0.00545 23.54239 -40.20135 -2.53386 -23.25120 -28.25305 -12.09455 -59.09438 75.97144 77.77945 41.05070 -0.03071 0.05012 3.44288 -19.76647 9.78922 
